# xmcd CD database file
#
# Track frame offsets:
#	150
#	17135
#	37690
#	57120
#	71920
#	100830
#	118460
#	149177
#	166745
#	188347
#	211305
#	229267
#	264207
#	287205
#	297945
#
# Disc length: 4373 seconds
#
# Revision: 3
# Processed by: cddbd v1.5.2PL0 Copyright (c) Steve Scherf et al.
# Submitted via: CDex 1.70beta2
#
DISCID=df11130f
DTITLE=Various Artist - Best Classics 100 [Disc 5] Favourite Classics
DYEAR=2005
DGENRE=Classical
TTITLE0=Riccardo Muti: Philharmonia Orchestra - Mascagni: Cavalleria Rusticana - Intermezzo
TTITLE1=Cecile Ousset, Simon Rattle - City Of Birmingham Symphony Orchestra - Rachmaninov: Piano Concerto #2 In C Minor, Op.18 - 2. Adagio Sostenuto (Opening)
TTITLE2=Neville Marriner: Academy Of St. Martin In The Fields - Grieg: Peer Gynt Suite #1 - 1. Morning Mood
TTITLE3=Tasmin Little, Piers Lane - Shostakovich: The Gadfly - Romance
TTITLE4=Eugene Ormandy: Philadelphia Orchestra - Barber: Adagio For Strings
TTITLE5=Riccardo Muti: Philadelphia Orchestra - Rimsky-Korsakov: Scheherazade, Op. 35 - 2. The Story Of The Calender Prince (Opening)
TTITLE6=Anne-Sophie Mutter - Herbert Von Karajan: Berlin Philharmonic Orchestra - Massenet: Thais - Meditation
TTITLE7=Thomas Beecham: Royal Philharmonic Orchestra - Borodin/Rimsky-Korsakov and Glazunov: Prince Igor - Polovtsian Dances (Beginning)
TTITLE8=Yuri Temirkanov: Royal Philharmonic Orchestra - Khachaturian: Spartacus - Adagio Of Spartacus And Phrygia (Extract)
TTITLE9=Mariss Jansons: Oslo Philharmonic Orchestra - Tchaikovsky: Romeo And Juliet - Fantasy Overture (Excerpt)
TTITLE10=Kurt Sanderling: Philharmonia Orchestra - Beethoven: Symphony #7 In A, Op. 92 - 2. Allegretto (Extract)
TTITLE11=Yehudi Menuhin, Christian Ferras - Bath Festival Orchestra - Bach (JS): Double Violin Concerto In D Minor, BWV 1043 - 2. Largo Ma Non Tanto
TTITLE12=Tasmin Little, lain Sutherland - New World Philharmonic - Williams: Schindler's List Theme
TTITLE13=Andre Previn - London Symphony Orchestra - Tchaikovsky: The Nutcracker - Dance Of The Reed Pipes
TTITLE14=Riccardo Muti: Philadelphia Orchestra - Beethoven: Symphony #6 In F, Op. 68, "Pastoral" - 5. Allegretto
EXTD=YEAR: 2005
EXTT0=
EXTT1=
EXTT2=
EXTT3=
EXTT4=
EXTT5=
EXTT6=
EXTT7=
EXTT8=
EXTT9=
EXTT10=
EXTT11=
EXTT12=
EXTT13=
EXTT14=
PLAYORDER=
